# xmcd
#
# Track frame offsets:
#	150
#	4008
#	47646
#	85664
#	101695
#	134788
#	177735
#	210564
#	237852
#
# Disc length: 3778 seconds
#
# Revision: 0
# Processed by: cddbd v1.4PL0 Copyright (c) Steve Scherf et al.
# Submitted via: dBpowerAMP V4.0
#
DISCID=770ec009
DTITLE=Simon Silva - Small Town Browny Disk One
DYEAR=1900
DGENRE=
TTITLE0=Introduction
TTITLE1=Cockfight Vacations
TTITLE2=The Punch
TTITLE3=Strawberry Face
TTITLE4=The Ultimate Home Remedy
TTITLE5=The Graduation Gift
TTITLE6=The Day My Brother Died
TTITLE7=Ode to a Cholo
TTITLE8=Wrestling Match at Midnight
EXTD=
EXTT0=
EXTT1=
EXTT2=
EXTT3=
EXTT4=
EXTT5=
EXTT6=
EXTT7=
EXTT8=
PLAYORDER=
